<?xml version="1.0" encoding="utf-8"?>
<!-- Generator: Adobe Illustrator 16.0.0, SVG Export Plug-In . SVG Version: 6.00 Build 0)  -->
<!DOCTYPE svg PUBLIC "-//W3C//DTD SVG 1.1//EN" "http://www.w3.org/Graphics/SVG/1.1/DTD/svg11.dtd">
<svg version="1.1" id="Layer_1" xmlns="http://www.w3.org/2000/svg" xmlns:xlink="http://www.w3.org/1999/xlink" x="0px" y="0px"
	 width="826.564px" height="211.489px" viewBox="0 0 826.564 211.489" enable-background="new 0 0 826.564 211.489"
	 xml:space="preserve">
<g>
	<path fill="#FFFFFF" d="M361.195,79.387v19.99h27.861c1.086,0,2.004,0.378,2.759,1.131c0.752,0.756,1.13,1.675,1.13,2.76
		c0,1.086-0.378,1.99-1.13,2.714c-0.755,0.725-1.673,1.085-2.759,1.085h-27.861v24.151c0,1.146-0.406,2.111-1.221,2.896
		c-0.816,0.782-1.795,1.175-2.941,1.175c-1.146,0-2.109-0.393-2.892-1.175c-0.788-0.784-1.177-1.749-1.177-2.896V75.86
		c0-1.146,0.389-2.126,1.177-2.939c0.782-0.814,1.746-1.222,2.892-1.222h35.188c1.085,0,2.004,0.377,2.759,1.13
		c0.754,0.756,1.131,1.674,1.131,2.761c0,1.085-0.377,1.989-1.131,2.713c-0.755,0.724-1.674,1.085-2.759,1.085H361.195z"/>
	<path fill="#FFFFFF" d="M419.631,87.799c6.994,0,12.602,2.202,16.824,6.604c4.22,4.464,6.33,10.254,6.33,17.368
		c0,7.116-2.11,12.904-6.33,17.367c-4.223,4.402-9.83,6.604-16.824,6.604c-7.057,0-12.665-2.201-16.826-6.604
		c-4.223-4.402-6.333-10.19-6.333-17.367c0-7.176,2.11-12.965,6.333-17.368C406.966,90.001,412.574,87.799,419.631,87.799z
		 M409.543,124.48c1.416,1.297,3.016,2.246,4.793,2.85c1.779,0.604,3.528,0.904,5.25,0.904c1.716,0,3.465-0.301,5.244-0.904
		c1.777-0.604,3.393-1.538,4.841-2.805c3.256-2.953,4.884-7.236,4.884-12.845c0-5.427-1.628-9.647-4.884-12.663
		c-2.716-2.472-6.063-3.709-10.04-3.709c-6.514,0-11.037,2.925-13.568,8.774c-0.906,2.11-1.357,4.657-1.357,7.644
		c0,2.984,0.451,5.533,1.357,7.644C406.966,121.48,408.127,123.184,409.543,124.48z"/>
	<path fill="#FFFFFF" d="M471.007,87.799c6.993,0,12.602,2.202,16.824,6.604c4.22,4.464,6.33,10.254,6.33,17.368
		c0,7.116-2.11,12.904-6.33,17.367c-4.223,4.402-9.831,6.604-16.824,6.604c-7.058,0-12.665-2.201-16.827-6.604
		c-4.223-4.402-6.332-10.19-6.332-17.367c0-7.176,2.109-12.965,6.332-17.368C458.342,90.001,463.949,87.799,471.007,87.799z
		 M460.919,124.48c1.415,1.297,3.016,2.246,4.792,2.85c1.779,0.604,3.529,0.904,5.25,0.904c1.717,0,3.466-0.301,5.245-0.904
		c1.776-0.604,3.392-1.538,4.841-2.805c3.255-2.953,4.884-7.236,4.884-12.845c0-5.427-1.629-9.647-4.884-12.663
		c-2.716-2.472-6.063-3.709-10.04-3.709c-6.515,0-11.037,2.925-13.568,8.774c-0.906,2.11-1.358,4.657-1.358,7.644
		c0,2.984,0.452,5.533,1.358,7.644C458.342,121.48,459.503,123.184,460.919,124.48z"/>
	<path fill="#FFFFFF" d="M538.394,128.867c-4.462,4.584-9.621,6.875-15.469,6.875c-5.787,0-10.795-2.049-15.014-6.15
		c-4.584-4.523-6.875-10.463-6.875-17.82c0-7.236,2.291-13.146,6.875-17.729c4.158-4.161,9.166-6.242,15.014-6.242
		s11.007,2.293,15.469,6.875V72.512c0-1.205,0.392-2.199,1.177-2.984c0.782-0.782,1.761-1.176,2.938-1.176s2.155,0.394,2.942,1.176
		c0.783,0.785,1.174,1.779,1.174,2.984v58.706c0,1.146-0.391,2.111-1.174,2.896c-0.787,0.782-1.766,1.175-2.942,1.175
		s-2.155-0.393-2.938-1.175c-0.785-0.784-1.177-1.749-1.177-2.896V128.867z M538.394,102.273c-4.104-4.522-8.863-6.784-14.292-6.784
		c-6.876,0-11.429,3.075-13.659,9.228c-0.785,2.051-1.174,4.401-1.174,7.055c0,5.188,1.413,9.258,4.25,12.211
		c2.592,2.715,6.118,4.07,10.583,4.07c5.429,0,10.188-2.261,14.292-6.783V102.273z"/>
	<path fill="#FFFFFF" stroke="#FFFFF" stroke-width="6" d="M605.511,71.247c1.144,0,2.128,0.408,2.94,1.222
		c0.813,0.813,1.222,1.794,1.222,2.938v55.812c0,1.146-0.408,2.111-1.222,2.896c-0.813,0.782-1.797,1.175-2.94,1.175
		c-1.146,0-2.112-0.393-2.895-1.175c-0.782-0.784-1.176-1.749-1.176-2.896v-24.061h-34.281v24.061c0,1.146-0.407,2.111-1.223,2.896
		c-0.814,0.782-1.794,1.175-2.939,1.175c-1.146,0-2.11-0.393-2.893-1.175c-0.787-0.784-1.176-1.749-1.176-2.896V75.407
		c0-1.145,0.389-2.125,1.176-2.938c0.782-0.813,1.746-1.222,2.893-1.222c1.146,0,2.125,0.408,2.939,1.222
		c0.815,0.813,1.223,1.794,1.223,2.938v24.063h34.281V75.407c0-1.145,0.394-2.125,1.176-2.938S604.365,71.247,605.511,71.247z"/>
	<path fill="#FFFFFF" stroke="#FFFFF" stroke-width="6" d="M645.855,128.144c5.305,0,10.252-2.896,14.835-8.686V92.323
		c0-1.145,0.406-2.11,1.222-2.895c0.813-0.783,1.792-1.176,2.938-1.176c1.146,0,2.11,0.393,2.896,1.176
		c0.784,0.784,1.176,1.75,1.176,2.895v38.806c0,1.207-0.392,2.201-1.176,2.985c-0.785,0.782-1.749,1.175-2.896,1.175
		c-1.146,0-2.125-0.393-2.938-1.175c-0.815-0.784-1.222-1.778-1.222-2.985v-3.709c-2.413,2.533-4.492,4.313-6.244,5.336
		c-3.438,1.99-6.708,2.986-9.813,2.986c-3.107,0-5.653-0.469-7.643-1.402c-1.991-0.935-3.68-2.216-5.067-3.845
		c-2.835-3.315-4.251-7.476-4.251-12.481v-25.69c0-1.145,0.409-2.11,1.222-2.895c0.813-0.783,1.792-1.176,2.938-1.176
		c1.146,0,2.109,0.393,2.896,1.176c0.783,0.784,1.177,1.75,1.177,2.895v24.785c0,3.438,0.768,6.137,2.307,8.095
		C639.747,127.165,642.297,128.144,645.855,128.144z"/>
	<path fill="#FFFFFF" stroke="#FFFFF" stroke-width="6" d="M695.061,94.674c4.462-4.582,9.618-6.875,15.469-6.875
		c5.848,0,10.855,2.081,15.015,6.242c4.583,4.583,6.875,10.493,6.875,17.729c0,7.357-2.292,13.297-6.875,17.82
		c-4.22,4.102-9.242,6.15-15.06,6.15c-5.82,0-10.962-2.291-15.424-6.875v2.352c0,1.146-0.394,2.111-1.176,2.896
		c-0.782,0.782-1.762,1.175-2.938,1.175c-1.176,0-2.157-0.393-2.939-1.175c-0.785-0.784-1.177-1.749-1.177-2.896V72.512
		c0-1.205,0.392-2.199,1.177-2.984c0.782-0.782,1.764-1.176,2.939-1.176c1.177,0,2.156,0.394,2.938,1.176
		c0.782,0.785,1.176,1.779,1.176,2.984V94.674z M695.061,121.269c4.102,4.522,8.864,6.783,14.293,6.783
		c6.875,0,11.456-3.074,13.747-9.226c0.727-2.05,1.088-4.401,1.088-7.056c0-5.187-1.388-9.256-4.162-12.212
		c-2.654-2.714-6.211-4.07-10.673-4.07c-5.429,0-10.191,2.262-14.293,6.784V121.269z"/>
</g>
<g>
	<g>
		<g>
			<path fill="#FFFFFF" d="M123.418,85.511l-0.626,1.743c-0.529-0.19-1.059-0.367-1.59-0.531c-0.639,0.925-1.244,1.875-1.813,2.85
				c0.771,0.217,1.541,0.455,2.308,0.729l-0.625,1.744l-0.623,1.74c-0.939-0.337-1.885-0.618-2.834-0.855
				c-0.624,1.312-1.185,2.66-1.68,4.037c1.022,0.23,2.043,0.523,3.054,0.886l-0.626,1.743l-0.625,1.74
				c-0.966-0.347-1.938-0.611-2.915-0.816c-0.246,0.922-0.465,1.855-0.651,2.8h4.159c4.007-18.228,20.275-31.911,39.687-31.913
				c19.411,0.002,35.681,13.686,39.687,31.913h4.162c-0.12-0.602-0.252-1.198-0.396-1.792c-0.916,0.191-1.83,0.438-2.736,0.755
				l-0.604-1.728l-0.603-1.723c0.972-0.34,1.952-0.611,2.934-0.828c-0.453-1.369-0.973-2.707-1.55-4.014
				c-0.934,0.228-1.864,0.496-2.788,0.82l-0.603-1.725l-0.604-1.723c0.777-0.272,1.56-0.507,2.341-0.719
				c-0.729-1.334-1.528-2.627-2.386-3.875c-0.846,0.229-1.689,0.48-2.529,0.773l-0.602-1.721l-0.602-1.727
				c0.459-0.16,0.92-0.304,1.38-0.446c-8.207-9.952-20.624-16.308-34.499-16.309h-0.002h-0.001
				c-13.855,0.001-26.258,6.337-34.463,16.265c0.163,0.057,0.326,0.105,0.487,0.163L123.418,85.511z"/>
			<path fill="#FFFFFF" d="M158.021,74.963h-0.002h-0.001c-17.441,0-32.1,12.106-36.036,28.356h4.197
				c3.838-13.985,16.652-24.292,31.84-24.292s28.003,10.307,31.841,24.292h4.194C190.118,87.07,175.461,74.963,158.021,74.963z"/>
			<path fill="#FFFFFF" d="M158.021,83.766h-0.002h-0.001c-12.549,0.002-23.206,8.22-26.892,19.554h4.313
				c3.511-9.051,12.306-15.487,22.58-15.487s19.07,6.437,22.58,15.487h4.315C181.225,91.986,170.566,83.768,158.021,83.766z"/>
			<path fill="#FFFFFF" d="M121.203,86.723c0.531,0.164,1.061,0.341,1.59,0.531l0.626-1.743l0.623-1.742
				c-0.161-0.058-0.324-0.106-0.487-0.163c-19.259-6.643-40.247,2.057-49.407,19.714h4.239
				C86.948,88.764,104.651,81.606,121.203,86.723z"/>
			<path fill="#FFFFFF" d="M117.616,92.93c0.949,0.237,1.895,0.519,2.834,0.855l0.623-1.74l0.625-1.744
				c-0.767-0.273-1.537-0.512-2.308-0.729c-14.217-3.99-29.205,1.816-37.187,13.747h4.593
				C94.016,94.306,106.042,90.016,117.616,92.93z"/>
			<path fill="#FFFFFF" d="M114.825,100.52c0.977,0.205,1.949,0.47,2.915,0.816l0.625-1.74l0.626-1.743
				c-1.011-0.362-2.032-0.655-3.054-0.886c-8.477-1.909-17.167,0.65-23.268,6.353h6.076
				C103.444,100.438,109.18,99.331,114.825,100.52z"/>
			<path fill="#FFFFFF" d="M191.742,85.823l0.602,1.721c0.84-0.293,1.684-0.545,2.529-0.773c15.921-4.312,32.638,2.69,40.897,16.55
				h4.184c-8.877-16.903-28.806-25.442-47.433-19.67c-0.46,0.143-0.921,0.286-1.38,0.446L191.742,85.823z"/>
			<path fill="#FFFFFF" d="M197.258,90.645c-0.781,0.212-1.563,0.446-2.341,0.719l0.604,1.723l0.603,1.725
				c0.924-0.324,1.854-0.593,2.788-0.82c10.933-2.664,22.222,1.171,29.356,9.329h4.665C224.983,92.316,210.81,86.992,197.258,90.645
				z"/>
			<path fill="#FFFFFF" d="M200.462,98.004c-0.981,0.217-1.962,0.488-2.934,0.828l0.603,1.723l0.604,1.728
				c0.906-0.317,1.82-0.563,2.736-0.755c4.872-1.019,9.805-0.306,14.062,1.792h6.66C216.291,98.413,208.297,96.278,200.462,98.004z"
				/>
			<path fill="#FFFFFF" d="M533.418,145.477c0-2.037,0.195-2.69-0.016-2.69h-1.37l-219.337,0.015l-1.381-63.036
				c5.67-1.711,9.563-6.903,9.563-12.9V46.813c0-2.191-1.783-3.975-3.975-3.975c-0.08,0-0.162,0.006-0.242,0.012l-0.025,0.001
				c-2.078,0.139-3.707,1.879-3.707,3.962l-0.008,15.021c0,1.287-0.438,1.938-1.299,1.938c-0.855,0-1.291-0.651-1.291-1.938v-15.34
				c0-2.017-1.639-3.656-3.654-3.656s-3.656,1.64-3.656,3.656v15.34c0,1.291-0.438,1.944-1.305,1.944
				c-0.854,0-1.291-0.653-1.291-1.944l-0.002-15.021c0-2.08-1.625-3.82-3.699-3.962l-0.031-0.001
				c-0.08-0.006-0.162-0.012-0.244-0.012c-2.189,0-3.975,1.783-3.975,3.975l0.008,1.576v11.037
				c-0.004,0.082-0.008,0.165-0.008,0.248v7.19c0,5.997,3.893,11.19,9.564,12.9l-1.381,63.036h-22.559l-1.373-62.508
				c6.428-1.842,9.555-7.881,9.555-18.428c0-4.827-1.65-9.572-4.643-13.365c-2.801-3.545-6.373-5.662-9.559-5.662
				c-6.566,0-14.199,8.311-14.199,19.027c0,10.08,3.299,16.41,9.557,18.366l-1.377,62.569h-57.787
				c23.437-8.612,37.302-22.483,37.302-37.574c0-0.082-0.006-0.168-0.018-0.254c-0.115-0.933-0.912-1.653-1.873-1.653H69.374
				c-1.003,0-1.823,0.782-1.885,1.769c-0.003,0.045-0.005,0.096-0.005,0.139c0,15.091,13.864,28.962,37.3,37.574H29.103
				c-0.031,0.282-0.068,0.563-0.1,0.846c0.057,1.15-0.011,2.306-0.213,3.437h7.633c0.122,0,0.239-0.006,0.357-0.016h69.309
				c0.421,0,0.81-0.126,1.14-0.336c0.001,0.001,0.001,0.001,0.002,0.002l0.007-0.007c0.229-0.147,0.428-0.338,0.587-0.561
				l2.261-2.157h-0.071c0.056-0.027,0.107-0.062,0.161-0.096l0.625-0.672c0.137-0.247,0.222-0.524,0.237-0.819
				c0.042-0.849-0.488-1.62-1.296-1.887c-23.033-7.583-37.194-19.979-38.399-33.438h170.369c-0.002,0.013-0.004,0.028-0.006,0.04
				c-0.059,0.652-0.158,1.301-0.275,1.946c-2.355,12.686-16.225,24.242-38.12,31.451c-0.809,0.266-1.338,1.039-1.296,1.888
				c0.017,0.344,0.126,0.665,0.305,0.938c0,0,3.107,3.707,3.455,3.707h61.49c0.498,0,0.904-0.955,0.904-2.134
				c0-0.344-0.039-0.664-0.1-0.952l0.1-4.511l0.123-5.583l1.211-55.218l-0.793-0.194c-5.838-1.433-8.797-7.021-8.797-16.61
				c0-9.411,6.654-16.992,12.164-16.992c4.898,0,12.166,7.137,12.166,16.992c0,10.022-2.789,15.313-8.777,16.647l-0.813,0.182
				l1.211,55.193l0.123,5.583l0.09,4.101c-0.055,0.37-0.09,0.842-0.09,1.362c0,1.179,0.17,2.134,0.383,2.134h25.906
				c0.211,0,0.381-0.955,0.381-2.134c0-0.115-0.002-0.226-0.006-0.335l0.029-0.025c-0.014-0.087-0.023-0.174-0.023-0.261
				l0.107-4.842l0.049-1.392l0.074-2.74l-0.002-1.451l1.219-55.699l-0.799-0.19c-5.18-1.227-8.797-5.805-8.797-11.134v-7.19
				c0-0.061,0.002-0.121,0.004-0.179l0.004-12.124l-0.006-0.662c0.057-1.021,0.902-1.836,1.936-1.836
				c0.033,0,0.064,0.005,0.096,0.006l0.041,0.004c1.01,0.068,1.803,0.916,1.803,1.93l0.002,15.021c0,2.455,1.275,3.98,3.326,3.98
				c2.031,0,3.342-1.563,3.342-3.98v-15.34c0-0.895,0.727-1.621,1.619-1.621s1.619,0.727,1.619,1.621v15.34
				c0,2.453,1.273,3.975,3.326,3.975c2.025,0,3.336-1.561,3.336-3.975l0.008-15.021c0-1.015,0.793-1.862,1.811-1.93l0.037-0.004
				c0.031-0.001,0.061-0.006,0.09-0.006c1.068,0,1.938,0.871,1.938,1.939v20.052c0,5.327-3.617,9.907-8.795,11.134l-0.801,0.19
				l1.219,55.699l-0.027,1.999l0.051,1.471l0.1,2.113l0.104,4.818c0,0.023-0.004,0.046-0.006,0.069c0,0-0.061,2.813,0.49,2.709
				l222.322,0.104C533.709,147.172,533.418,146.656,533.418,145.477z"/>
		</g>
		<polyline fill="#FFFFFF" points="30.438,142.813 27.813,142.813 27.813,147.094 29.813,147.094 		"/>
	</g>
	<polyline fill="#FFFFFF" points="531.201,147.125 536.525,147.125 542.61,147.125 772.711,147.125 772.711,142.782
		527.626,142.782 	"/>
</g>
</svg>
